<svg width="59" height="60" viewBox="0 0 59 60" fill="none" xmlns="http://www.w3.org/2000/svg">
<rect width="59" height="60" rx="10" fill="#0E6365"/>
<path d="M41.6588 14.1618H43.4941L12.0647 45.8382H10.2294L25.9441 30L10 13.9306H38.6765L36.8412 15.7803H13.9L26.9765 28.9595L28.4676 27.4566L18.4882 17.3988H20.7824L29.6147 26.3006L41.6588 14.1618Z" fill="white"/>
<path d="M17.1118 46.0694H15.0471H14.8176L46.4765 14.1618H48.7706L32.9412 30.1156L49 46.3006H19.8647L21.4706 44.6821L21.7 44.4509H44.6412L31.6794 31.3873L30.4176 32.659L40.2824 42.6012H37.7888L29.1708 33.9156L17.1118 46.0694Z" fill="white"/>
<path d="M15.7353 50L17.3412 48.3815H41.2L42.8059 50H15.7353Z" fill="white"/>
<path d="M17.5706 11.8497L15.7353 10H43.2647L41.4294 11.8497H17.5706Z" fill="white"/>
</svg>
