<svg width="76" height="76" viewBox="0 0 76 76" fill="none" xmlns="http://www.w3.org/2000/svg">
<rect width="76" height="76" rx="5" fill="#358D91"/>
<mask id="mask0_410_47" style="mask-type:alpha" maskUnits="userSpaceOnUse" x="0" y="0" width="76" height="76">
<rect width="76" height="76" rx="5" fill="#D9D9D9"/>
</mask>
<g mask="url(#mask0_410_47)">
<path d="M12.213 -4.17512H12.9893L-0.304654 8.88828H-1.08094L5.56603 2.35658L-1.17798 -4.27047H10.9515L10.1752 -3.50765H0.471634L6.00269 1.92749L6.63342 1.3077L2.41235 -2.84017H3.38271L7.1186 0.83093L12.213 -4.17512Z" fill="black" fill-opacity="0.04"/>
<path d="M1.83014 8.98364H0.956814H0.859778L14.2507 -4.17512H15.2211L8.52562 2.40426L15.3181 9.07899H2.99457L3.67382 8.41152L3.77086 8.31616H13.4745L7.99193 2.9287L7.45823 3.45315L11.6308 7.55334H10.576L6.93086 3.97137L1.83014 8.98364Z" fill="black" fill-opacity="0.04"/>
<path d="M1.24792 10.6046L1.92717 9.93717H12.0189L12.6982 10.6046H1.24792Z" fill="black" fill-opacity="0.04"/>
<path d="M2.02421 -5.12865L1.24792 -5.89148H12.8922L12.116 -5.12865H2.02421Z" fill="black" fill-opacity="0.04"/>
<path d="M9.85606 14.0885H10.6323L-2.66159 27.1519H-3.43788L3.20909 20.6202L-3.53491 13.9931H8.59459L7.8183 14.756H-1.8853L3.64575 20.1911L4.27649 19.5713L0.0554209 15.4234H1.02578L4.76167 19.0945L9.85606 14.0885Z" fill="black" fill-opacity="0.04"/>
<path d="M-0.526795 27.2472H-1.40012H-1.49716L11.8938 14.0885H12.8642L6.16869 20.6679L12.9612 27.3426H0.637637L1.31689 26.6751L1.41393 26.5798H11.1175L5.63499 21.1923L5.10129 21.7168L9.27384 25.8169H8.21911L4.57393 22.235L-0.526795 27.2472Z" fill="black" fill-opacity="0.04"/>
<path d="M-1.10901 28.8683L-0.429759 28.2008H9.66199L10.3412 28.8683H-1.10901Z" fill="black" fill-opacity="0.04"/>
<path d="M-0.332723 13.135L-1.10901 12.3721H10.5353L9.75902 13.135H-0.332723Z" fill="black" fill-opacity="0.04"/>
<path d="M9.85606 32.352H10.6323L-2.66159 45.4154H-3.43788L3.20909 38.8837L-3.53491 32.2567H8.59459L7.8183 33.0195H-1.8853L3.64575 38.4547L4.27649 37.8349L0.0554209 33.687H1.02578L4.76167 37.3581L9.85606 32.352Z" fill="black" fill-opacity="0.04"/>
<path d="M-0.526795 45.5108H-1.40012H-1.49716L11.8938 32.352H12.8642L6.16869 38.9314L12.9612 45.6062H0.637637L1.31689 44.9387L1.41393 44.8433H11.1175L5.63499 39.4559L5.10129 39.9803L9.27384 44.0805H8.21911L4.57393 40.4985L-0.526795 45.5108Z" fill="black" fill-opacity="0.04"/>
<path d="M-1.10901 47.1318L-0.429759 46.4643H9.66199L10.3412 47.1318H-1.10901Z" fill="black" fill-opacity="0.04"/>
<path d="M-0.332723 31.3985L-1.10901 30.6357H10.5353L9.75902 31.3985H-0.332723Z" fill="black" fill-opacity="0.04"/>
<path d="M8.08873 51.2047H8.86501L-4.42892 64.2681H-5.20521L1.44176 57.7364L-5.30225 51.1093H6.82726L6.05097 51.8722H-3.65263L1.87842 57.3073L2.50915 56.6875L-1.71191 52.5396H-0.741553L2.99433 56.2108L8.08873 51.2047Z" fill="black" fill-opacity="0.04"/>
<path d="M-2.29413 64.3635H-3.16745H-3.26449L10.1265 51.2047H11.0968L4.40136 57.7841L11.1939 64.4588H-1.1297L-0.450445 63.7913L-0.353409 63.696H9.35019L3.86766 58.3085L3.33396 58.833L7.50651 62.9332H6.45177L2.80659 59.3512L-2.29413 64.3635Z" fill="black" fill-opacity="0.04"/>
<path d="M-2.87635 65.9845L-2.19709 65.317H7.89465L8.57391 65.9845H-2.87635Z" fill="black" fill-opacity="0.04"/>
<path d="M-2.10006 50.2512L-2.87635 49.4883H8.76798L7.99169 50.2512H-2.10006Z" fill="black" fill-opacity="0.04"/>
<path d="M8.08873 69.4683H8.86501L-4.42892 82.5317H-5.20521L1.44176 76L-5.30225 69.373H6.82726L6.05097 70.1358H-3.65263L1.87842 75.5709L2.50915 74.9511L-1.71191 70.8033H-0.741553L2.99433 74.4744L8.08873 69.4683Z" fill="black" fill-opacity="0.04"/>
<path d="M-2.29413 82.6271H-3.16745H-3.26449L10.1265 69.4683H11.0968L4.40136 76.0477L11.1939 82.7224H-1.1297L-0.450445 82.055L-0.353409 81.9596H9.35019L3.86766 76.5721L3.33396 77.0966L7.50651 81.1968H6.45177L2.80659 77.6148L-2.29413 82.6271Z" fill="black" fill-opacity="0.04"/>
<path d="M-2.87635 84.2481L-2.19709 83.5806H7.89465L8.57391 84.2481H-2.87635Z" fill="black" fill-opacity="0.04"/>
<path d="M-2.10006 68.5148L-2.87635 67.752H8.76798L7.99169 68.5148H-2.10006Z" fill="black" fill-opacity="0.04"/>
<path d="M79.9647 -5.3534H80.741L67.4471 7.71H66.6708L73.3177 1.1783L66.5737 -5.44876H78.7032L77.9269 -4.68593H68.2233L73.7544 0.749209L74.3851 0.129413L70.1641 -4.01846H71.1344L74.8703 -0.347354L79.9647 -5.3534Z" fill="black" fill-opacity="0.04"/>
<path d="M69.5818 7.80536H68.7085H68.6115L82.0025 -5.3534H82.9728L76.2773 1.22598L83.0699 7.90071H70.7463L71.4255 7.23323L71.5226 7.13788H81.2262L75.7436 1.75042L75.2099 2.27486L79.3825 6.37506H78.3278L74.6826 2.79309L69.5818 7.80536Z" fill="black" fill-opacity="0.04"/>
<path d="M68.9996 9.42636L69.6789 8.75889H79.7706L80.4499 9.42636H68.9996Z" fill="black" fill-opacity="0.04"/>
<path d="M69.7759 -6.30694L68.9996 -7.06976H80.644L79.8677 -6.30694H69.7759Z" fill="black" fill-opacity="0.04"/>
<path d="M77.6083 12.9102H78.3845L65.0906 25.9736H64.3143L70.9613 19.4419L64.2173 12.8149H76.3468L75.5705 13.5777H65.8669L71.398 19.0128L72.0287 18.393L67.8076 14.2452H68.778L72.5139 17.9163L77.6083 12.9102Z" fill="black" fill-opacity="0.04"/>
<path d="M67.2254 26.069H66.3521H66.255L79.646 12.9102H80.6164L73.9209 19.4896L80.7134 26.1643H68.3898L69.0691 25.4968L69.1661 25.4015H78.8697L73.3872 20.014L72.8535 20.5385L77.026 24.6387H75.9713L72.3261 21.0567L67.2254 26.069Z" fill="black" fill-opacity="0.04"/>
<path d="M66.6432 27.69L67.3224 27.0225H77.4142L78.0934 27.69H66.6432Z" fill="black" fill-opacity="0.04"/>
<path d="M67.4195 11.9567L66.6432 11.1938H78.2875L77.5112 11.9567H67.4195Z" fill="black" fill-opacity="0.04"/>
<path d="M77.6083 31.1737H78.3845L65.0906 44.2371H64.3143L70.9613 37.7054L64.2173 31.0783H76.3468L75.5705 31.8412H65.8669L71.398 37.2763L72.0287 36.6565L67.8076 32.5086H68.778L72.5139 36.1797L77.6083 31.1737Z" fill="black" fill-opacity="0.04"/>
<path d="M67.2254 44.3325H66.3521H66.255L79.646 31.1737H80.6164L73.9209 37.7531L80.7134 44.4278H68.3898L69.0691 43.7603L69.1661 43.665H78.8697L73.3872 38.2775L72.8535 38.802L77.026 42.9022H75.9713L72.3261 39.3202L67.2254 44.3325Z" fill="black" fill-opacity="0.04"/>
<path d="M66.6432 45.9535L67.3224 45.286H77.4142L78.0934 45.9535H66.6432Z" fill="black" fill-opacity="0.04"/>
<path d="M67.4195 30.2202L66.6432 29.4573H78.2875L77.5112 30.2202H67.4195Z" fill="black" fill-opacity="0.04"/>
<path d="M75.8407 50.0264H76.617L63.323 63.0898H62.5467L69.1937 56.5581L62.4497 49.9311H74.5792L73.8029 50.6939H64.0993L69.6304 56.129L70.2611 55.5092L66.04 51.3614H67.0104L70.7463 55.0325L75.8407 50.0264Z" fill="black" fill-opacity="0.04"/>
<path d="M65.4578 63.1852H64.5845H64.4875L77.8784 50.0264H78.8488L72.1533 56.6058L78.9458 63.2805H66.6223L67.3015 62.6131L67.3985 62.5177H77.1021L71.6196 57.1302L71.0859 57.6547L75.2585 61.7549H74.2037L70.5585 58.1729L65.4578 63.1852Z" fill="black" fill-opacity="0.04"/>
<path d="M64.8756 64.8062L65.5549 64.1387H75.6466L76.3259 64.8062H64.8756Z" fill="black" fill-opacity="0.04"/>
<path d="M65.6519 49.0729L64.8756 48.3101H76.5199L75.7436 49.0729H65.6519Z" fill="black" fill-opacity="0.04"/>
<path d="M75.8407 68.29H76.617L63.323 81.3534H62.5467L69.1937 74.8217L62.4497 68.1946H74.5792L73.8029 68.9574H64.0993L69.6304 74.3926L70.2611 73.7728L66.04 69.6249H67.0104L70.7463 73.296L75.8407 68.29Z" fill="black" fill-opacity="0.04"/>
<path d="M65.4578 81.4487H64.5845H64.4875L77.8784 68.29H78.8488L72.1533 74.8693L78.9458 81.5441H66.6223L67.3015 80.8766L67.3985 80.7813H77.1021L71.6196 75.3938L71.0859 75.9182L75.2585 80.0184H74.2037L70.5585 76.4365L65.4578 81.4487Z" fill="black" fill-opacity="0.04"/>
<path d="M64.8756 83.0697L65.5549 82.4023H75.6466L76.3259 83.0697H64.8756Z" fill="black" fill-opacity="0.04"/>
<path d="M65.6519 67.3364L64.8756 66.5736H76.5199L75.7436 67.3364H65.6519Z" fill="black" fill-opacity="0.04"/>
<path d="M25.763 3.48382H26.5393L13.2454 16.5472H12.4691L19.1161 10.0155L12.3721 3.38846H24.5016L23.7253 4.15129H14.0217L19.5527 9.58643L20.1835 8.96663L15.9624 4.81876H16.9328L20.6687 8.48987L25.763 3.48382Z" fill="black" fill-opacity="0.04"/>
<path d="M15.3802 16.6426H14.5069H14.4098L27.8008 3.48382H28.7712L22.0757 10.0632L28.8682 16.7379H16.5446L17.2239 16.0705L17.3209 15.9751H27.0245L21.542 10.5876L21.0083 11.1121L25.1808 15.2123H24.1261L20.4809 11.6303L15.3802 16.6426Z" fill="black" fill-opacity="0.04"/>
<path d="M14.798 18.2636L15.4772 17.5961H25.569L26.2482 18.2636H14.798Z" fill="black" fill-opacity="0.04"/>
<path d="M15.5743 2.53028L14.798 1.76746H26.4423L25.666 2.53028H15.5743Z" fill="black" fill-opacity="0.04"/>
<path d="M25.763 21.7474H26.5393L13.2454 34.8108H12.4691L19.1161 28.2791L12.3721 21.652H24.5016L23.7253 22.4148H14.0217L19.5527 27.85L20.1835 27.2302L15.9624 23.0823H16.9328L20.6687 26.7534L25.763 21.7474Z" fill="black" fill-opacity="0.04"/>
<path d="M15.3802 34.9061H14.5069H14.4098L27.8008 21.7474H28.7712L22.0757 28.3267L28.8682 35.0015H16.5446L17.2239 34.334L17.3209 34.2387H27.0245L21.542 28.8512L21.0083 29.3756L25.1808 33.4758H24.1261L20.4809 29.8939L15.3802 34.9061Z" fill="black" fill-opacity="0.04"/>
<path d="M14.798 36.5271L15.4772 35.8597H25.569L26.2482 36.5271H14.798Z" fill="black" fill-opacity="0.04"/>
<path d="M15.5743 20.7938L14.798 20.031H26.4423L25.666 20.7938H15.5743Z" fill="black" fill-opacity="0.04"/>
<path d="M23.9957 40.6001H24.772L11.4781 53.6635H10.7018L17.3487 47.1318L10.6047 40.5047H22.7342L21.958 41.2676H12.2543L17.7854 46.7027L18.4161 46.0829L14.1951 41.935H15.1654L18.9013 45.6061L23.9957 40.6001Z" fill="black" fill-opacity="0.04"/>
<path d="M13.6129 53.7588H12.7395H12.6425L26.0335 40.6001H27.0038L20.3083 47.1795L27.1009 53.8542H14.7773L15.4565 53.1867L15.5536 53.0914H25.2572L19.7746 47.7039L19.2409 48.2284L23.4135 52.3285H22.3588L18.7136 48.7466L13.6129 53.7588Z" fill="black" fill-opacity="0.04"/>
<path d="M13.0306 55.3799L13.7099 54.7124H23.8016L24.4809 55.3799H13.0306Z" fill="black" fill-opacity="0.04"/>
<path d="M13.8069 39.6466L13.0306 38.8837H24.675L23.8987 39.6466H13.8069Z" fill="black" fill-opacity="0.04"/>
<path d="M23.9957 58.8637H24.772L11.4781 71.9271H10.7018L17.3487 65.3954L10.6047 58.7683H22.7342L21.958 59.5312H12.2543L17.7854 64.9663L18.4161 64.3465L14.1951 60.1986H15.1654L18.9013 63.8697L23.9957 58.8637Z" fill="black" fill-opacity="0.04"/>
<path d="M13.6129 72.0225H12.7395H12.6425L26.0335 58.8637H27.0038L20.3083 65.4431L27.1009 72.1178H14.7773L15.4565 71.4503L15.5536 71.355H25.2572L19.7746 65.9675L19.2409 66.492L23.4135 70.5922H22.3588L18.7136 67.0102L13.6129 72.0225Z" fill="black" fill-opacity="0.04"/>
<path d="M13.0306 73.6435L13.7099 72.976H23.8016L24.4809 73.6435H13.0306Z" fill="black" fill-opacity="0.04"/>
<path d="M13.8069 57.9102L13.0306 57.1473H24.675L23.8987 57.9102H13.8069Z" fill="black" fill-opacity="0.04"/>
<path d="M64.0575 4.66204H64.8338L51.5398 17.7254H50.7635L57.4105 11.1937L50.6665 4.56669H62.796L62.0197 5.32951H52.3161L57.8472 10.7647L58.4779 10.1449L54.2568 5.99698H55.2272L58.9631 9.66809L64.0575 4.66204Z" fill="black" fill-opacity="0.04"/>
<path d="M53.6746 17.8208H52.8013H52.7043L66.0952 4.66204H67.0656L60.3701 11.2414L67.1626 17.9162H54.8391L55.5183 17.2487L55.6153 17.1533H65.3189L59.8364 11.7659L59.3027 12.2903L63.4753 16.3905H62.4205L58.7753 12.8085L53.6746 17.8208Z" fill="black" fill-opacity="0.04"/>
<path d="M53.0924 19.4418L53.7717 18.7743H63.8634L64.5427 19.4418H53.0924Z" fill="black" fill-opacity="0.04"/>
<path d="M53.8687 3.70851L53.0924 2.94568H64.7367L63.9604 3.70851H53.8687Z" fill="black" fill-opacity="0.04"/>
<path d="M64.0575 22.9256H64.8338L51.5398 35.9891H50.7635L57.4105 29.4574L50.6665 22.8303H62.796L62.0197 23.5931H52.3161L57.8472 29.0283L58.4779 28.4085L54.2568 24.2606H55.2272L58.9631 27.9317L64.0575 22.9256Z" fill="black" fill-opacity="0.04"/>
<path d="M53.6746 36.0844H52.8013H52.7043L66.0952 22.9256H67.0656L60.3701 29.505L67.1626 36.1798H54.8391L55.5183 35.5123L55.6153 35.4169H65.3189L59.8364 30.0295L59.3027 30.5539L63.4753 34.6541H62.4205L58.7753 31.0721L53.6746 36.0844Z" fill="black" fill-opacity="0.04"/>
<path d="M53.0924 37.7054L53.7717 37.0379H63.8634L64.5427 37.7054H53.0924Z" fill="black" fill-opacity="0.04"/>
<path d="M53.8687 21.9721L53.0924 21.2093H64.7367L63.9604 21.9721H53.8687Z" fill="black" fill-opacity="0.04"/>
<path d="M62.2901 41.7784H63.0664L49.7725 54.8418H48.9962L55.6432 48.3101L48.8992 41.683H61.0287L60.2524 42.4458H50.5488L56.0798 47.881L56.7106 47.2612L52.4895 43.1133H53.4599L57.1958 46.7844L62.2901 41.7784Z" fill="black" fill-opacity="0.04"/>
<path d="M51.9073 54.9371H51.034H50.9369L64.3279 41.7784H65.2983L58.6028 48.3578L65.3953 55.0325H53.0717L53.751 54.365L53.848 54.2697H63.5516L58.0691 48.8822L57.5354 49.4066L61.7079 53.5068H60.6532L57.008 49.9249L51.9073 54.9371Z" fill="black" fill-opacity="0.04"/>
<path d="M51.3251 56.5581L52.0043 55.8907H62.0961L62.7753 56.5581H51.3251Z" fill="black" fill-opacity="0.04"/>
<path d="M52.1014 40.8248L51.3251 40.062H62.9694L62.1931 40.8248H52.1014Z" fill="black" fill-opacity="0.04"/>
<path d="M62.2901 60.042H63.0664L49.7725 73.1054H48.9962L55.6432 66.5737L48.8992 59.9466H61.0287L60.2524 60.7095H50.5488L56.0798 66.1446L56.7106 65.5248L52.4895 61.3769H53.4599L57.1958 65.048L62.2901 60.042Z" fill="black" fill-opacity="0.04"/>
<path d="M51.9073 73.2007H51.034H50.9369L64.3279 60.042H65.2983L58.6028 66.6214L65.3953 73.2961H53.0717L53.751 72.6286L53.848 72.5333H63.5516L58.0691 67.1458L57.5354 67.6702L61.7079 71.7704H60.6532L57.008 68.1885L51.9073 73.2007Z" fill="black" fill-opacity="0.04"/>
<path d="M51.3251 74.8217L52.0043 74.1543H62.0961L62.7753 74.8217H51.3251Z" fill="black" fill-opacity="0.04"/>
<path d="M52.1014 59.0884L51.3251 58.3256H62.9694L62.1931 59.0884H52.1014Z" fill="black" fill-opacity="0.04"/>
<path d="M40.4918 -7.71003H41.2681L27.9742 5.35337H27.1979L33.8448 -1.17833L27.1008 -7.80539H39.2303L38.454 -7.04256H28.7504L34.2815 -1.60742L34.9122 -2.22722L30.6912 -6.37509H31.6615L35.3974 -2.70398L40.4918 -7.71003Z" fill="black" fill-opacity="0.04"/>
<path d="M30.1089 5.44873H29.2356H29.1386L42.5296 -7.71003H43.4999L36.8044 -1.13065L43.597 5.54408H31.2734L31.9526 4.87661L32.0497 4.78125H41.7533L36.2707 -0.60621L35.737 -0.0817661L39.9096 4.01843H38.8549L35.2097 0.436457L30.1089 5.44873Z" fill="black" fill-opacity="0.04"/>
<path d="M29.5267 7.06973L30.206 6.40226H40.2977L40.977 7.06973H29.5267Z" fill="black" fill-opacity="0.04"/>
<path d="M30.303 -8.66357L29.5267 -9.42639H41.1711L40.3948 -8.66357H30.303Z" fill="black" fill-opacity="0.04"/>
<path d="M38.1351 10.5536H38.9114L25.6175 23.617H24.8412L31.4881 17.0853L24.7441 10.4582H36.8736L36.0974 11.2211H26.3938L31.9248 16.6562L32.5555 16.0364L28.3345 11.8885H29.3048L33.0407 15.5596L38.1351 10.5536Z" fill="black" fill-opacity="0.04"/>
<path d="M27.7523 23.7123H26.8789H26.7819L40.1729 10.5536H41.1432L34.4477 17.133L41.2403 23.8077H28.9167L29.5959 23.1402L29.693 23.0449H39.3966L33.914 17.6574L33.3803 18.1818L37.5529 22.282H36.4982L32.853 18.7001L27.7523 23.7123Z" fill="black" fill-opacity="0.04"/>
<path d="M27.17 25.3333L27.8493 24.6659H37.941L38.6203 25.3333H27.17Z" fill="black" fill-opacity="0.04"/>
<path d="M27.9463 9.60005L27.17 8.83722H38.8144L38.0381 9.60005H27.9463Z" fill="black" fill-opacity="0.04"/>
<path d="M38.1351 28.8172H38.9114L25.6175 41.8806H24.8412L31.4881 35.3489L24.7441 28.7218H36.8736L36.0974 29.4847H26.3938L31.9248 34.9198L32.5555 34.3L28.3345 30.1521H29.3048L33.0407 33.8232L38.1351 28.8172Z" fill="black" fill-opacity="0.04"/>
<path d="M27.7523 41.9759H26.8789H26.7819L40.1729 28.8172H41.1432L34.4477 35.3966L41.2403 42.0713H28.9167L29.5959 41.4038L29.693 41.3085H39.3966L33.914 35.921L33.3803 36.4455L37.5529 40.5456H36.4982L32.853 36.9637L27.7523 41.9759Z" fill="black" fill-opacity="0.04"/>
<path d="M27.17 43.597L27.8493 42.9295H37.941L38.6203 43.597H27.17Z" fill="black" fill-opacity="0.04"/>
<path d="M27.9463 27.8637L27.17 27.1008H38.8144L38.0381 27.8637H27.9463Z" fill="black" fill-opacity="0.04"/>
<path d="M36.3678 47.6699H37.1441L23.8501 60.7333H23.0738L29.7208 54.2016L22.9768 47.5745H35.1063L34.33 48.3373H24.6264L30.1575 53.7725L30.7882 53.1527L26.5671 49.0048H27.5375L31.2734 52.6759L36.3678 47.6699Z" fill="black" fill-opacity="0.04"/>
<path d="M25.9849 60.8286H25.1116H25.0146L38.4055 47.6699H39.3759L32.6804 54.2492L39.4729 60.924H27.1494L27.8286 60.2565L27.9256 60.1611H37.6292L32.1467 54.7737L31.613 55.2981L35.7856 59.3983H34.7308L31.0856 55.8163L25.9849 60.8286Z" fill="black" fill-opacity="0.04"/>
<path d="M25.4027 62.4496L26.082 61.7821H36.1737L36.853 62.4496H25.4027Z" fill="black" fill-opacity="0.04"/>
<path d="M26.179 46.7163L25.4027 45.9535H37.047L36.2707 46.7163H26.179Z" fill="black" fill-opacity="0.04"/>
<path d="M36.3678 65.9334H37.1441L23.8501 78.9968H23.0738L29.7208 72.4651L22.9768 65.838H35.1063L34.33 66.6009H24.6264L30.1575 72.036L30.7882 71.4162L26.5671 67.2683H27.5375L31.2734 70.9395L36.3678 65.9334Z" fill="black" fill-opacity="0.04"/>
<path d="M25.9849 79.0922H25.1116H25.0146L38.4055 65.9334H39.3759L32.6804 72.5128L39.4729 79.1875H27.1494L27.8286 78.52L27.9256 78.4247H37.6292L32.1467 73.0372L31.613 73.5617L35.7856 77.6619H34.7308L31.0856 74.0799L25.9849 79.0922Z" fill="black" fill-opacity="0.04"/>
<path d="M25.4027 80.7132L26.082 80.0457H36.1737L36.853 80.7132H25.4027Z" fill="black" fill-opacity="0.04"/>
<path d="M26.179 64.9799L25.4027 64.217H37.047L36.2707 64.9799H26.179Z" fill="black" fill-opacity="0.04"/>
<path d="M51.0965 -1.81849H51.8728L38.5789 11.2449H37.8026L44.4496 4.71321L37.7056 -1.91384H49.8351L49.0588 -1.15102H39.3552L44.8862 4.28412L45.517 3.66432L41.2959 -0.483545H42.2663L46.0021 3.18756L51.0965 -1.81849Z" fill="black" fill-opacity="0.04"/>
<path d="M40.7137 11.3403H39.8404H39.7433L53.1343 -1.81849H54.1047L47.4092 4.76089L54.2017 11.4356H41.8781L42.5574 10.7681L42.6544 10.6728H52.358L46.8755 5.28533L46.3418 5.80977L50.5143 9.90997H49.4596L45.8144 6.328L40.7137 11.3403Z" fill="black" fill-opacity="0.04"/>
<path d="M40.1315 12.9613L40.8107 12.2938H50.9025L51.5817 12.9613H40.1315Z" fill="black" fill-opacity="0.04"/>
<path d="M40.9078 -2.77202L40.1315 -3.53485H51.7758L50.9995 -2.77202H40.9078Z" fill="black" fill-opacity="0.04"/>
<path d="M50.5072 16.4451H51.2835L37.9895 29.5085H37.2132L43.8602 22.9768L37.1162 16.3497H49.2457L48.4694 17.1125H38.7658L44.2969 22.5477L44.9276 21.9279L40.7065 17.78H41.6769L45.4128 21.4511L50.5072 16.4451Z" fill="black" fill-opacity="0.04"/>
<path d="M40.1243 29.6038H39.251H39.154L52.5449 16.4451H53.5153L46.8198 23.0244L53.6123 29.6992H41.2888L41.968 29.0317L42.065 28.9363H51.7687L46.2861 23.5489L45.7524 24.0733L49.925 28.1735H48.8702L45.225 24.5915L40.1243 29.6038Z" fill="black" fill-opacity="0.04"/>
<path d="M39.5421 31.2248L40.2214 30.5574H50.3131L50.9924 31.2248H39.5421Z" fill="black" fill-opacity="0.04"/>
<path d="M40.3184 15.4915L39.5421 14.7287H51.1864L50.4101 15.4915H40.3184Z" fill="black" fill-opacity="0.04"/>
<path d="M49.329 35.2977H50.1052L36.8113 48.3611H36.035L42.682 41.8294L35.938 35.2024H48.0675L47.2912 35.9652H37.5876L43.1187 41.4003L43.7494 40.7805L39.5283 36.6327H40.4987L44.2346 40.3038L49.329 35.2977Z" fill="black" fill-opacity="0.04"/>
<path d="M38.9461 48.4565H38.0728H37.9757L51.3667 35.2977H52.3371L45.6416 41.8771L52.4341 48.5518H40.1105L40.7898 47.8844L40.8868 47.789H50.5904L45.1079 42.4015L44.5742 42.926L48.7467 47.0262H47.692L44.0468 43.4442L38.9461 48.4565Z" fill="black" fill-opacity="0.04"/>
<path d="M38.3639 50.0775L39.0431 49.41H49.1349L49.8141 50.0775H38.3639Z" fill="black" fill-opacity="0.04"/>
<path d="M39.1402 34.3442L38.3639 33.5814H50.0082L49.2319 34.3442H39.1402Z" fill="black" fill-opacity="0.04"/>
<path d="M50.5072 53.5613H51.2835L37.9895 66.6247H37.2132L43.8602 60.093L37.1162 53.466H49.2457L48.4694 54.2288H38.7658L44.2969 59.6639L44.9276 59.0441L40.7065 54.8963H41.6769L45.4128 58.5674L50.5072 53.5613Z" fill="black" fill-opacity="0.04"/>
<path d="M40.1243 66.7201H39.251H39.154L52.5449 53.5613H53.5153L46.8198 60.1407L53.6123 66.8154H41.2888L41.968 66.148L42.065 66.0526H51.7687L46.2861 60.6652L45.7524 61.1896L49.925 65.2898H48.8702L45.225 61.7078L40.1243 66.7201Z" fill="black" fill-opacity="0.04"/>
<path d="M39.5421 68.3411L40.2214 67.6736H50.3131L50.9924 68.3411H39.5421Z" fill="black" fill-opacity="0.04"/>
<path d="M40.3184 52.6078L39.5421 51.845H51.1864L50.4101 52.6078H40.3184Z" fill="black" fill-opacity="0.04"/>
<path d="M46.9723 71.8249H47.7486L34.4546 84.8883H33.6783L40.3253 78.3566L33.5813 71.7295H45.7108L44.9345 72.4924H35.2309L40.762 77.9275L41.3927 77.3077L37.1716 73.1598H38.142L41.8779 76.8309L46.9723 71.8249Z" fill="black" fill-opacity="0.04"/>
<path d="M36.5894 84.9836H35.7161H35.6191L49.01 71.8249H49.9804L43.2849 78.4043L50.0774 85.079H37.7538L38.4331 84.4115L38.5301 84.3162H48.2337L42.7512 78.9287L42.2175 79.4531L46.3901 83.5533H45.3353L41.6901 79.9714L36.5894 84.9836Z" fill="black" fill-opacity="0.04"/>
<path d="M36.0072 86.6046L36.6865 85.9372H46.7782L47.4575 86.6046H36.0072Z" fill="black" fill-opacity="0.04"/>
<path d="M36.7835 70.8713L36.0072 70.1085H47.6515L46.8752 70.8713H36.7835Z" fill="black" fill-opacity="0.04"/>
</g>
<path d="M53.5882 18.2023H55.9412L15.6471 57.7977H13.2941L33.4412 38L13 17.9133H49.7647L47.4118 20.2254H18L34.7647 36.6994L36.6765 34.8208L23.8824 22.2486H26.8235L38.1471 33.3757L53.5882 18.2023Z" fill="url(#paint0_linear_410_47)"/>
<path d="M22.1176 58.0867H19.4706H19.1765L59.7647 18.2023H62.7059L42.4118 38.1445L63 58.3757H25.6471L27.7059 56.3526L28 56.0636H57.4118L40.7941 39.7341L39.1765 41.3237L51.8235 53.7514H48.6266L37.578 42.8944L22.1176 58.0867Z" fill="url(#paint1_linear_410_47)"/>
<path d="M20.3529 63L22.4118 60.9769H53L55.0588 63H20.3529Z" fill="url(#paint2_linear_410_47)"/>
<path d="M22.7059 15.3121L20.3529 13H55.6471L53.2941 15.3121H22.7059Z" fill="url(#paint3_linear_410_47)"/>
<defs>
<linearGradient id="paint0_linear_410_47" x1="38" y1="13" x2="38" y2="63" gradientUnits="userSpaceOnUse">
<stop stop-color="#F0CAB9"/>
<stop offset="1" stop-color="#E19F83"/>
</linearGradient>
<linearGradient id="paint1_linear_410_47" x1="38" y1="13" x2="38" y2="63" gradientUnits="userSpaceOnUse">
<stop stop-color="#F0CAB9"/>
<stop offset="1" stop-color="#E19F83"/>
</linearGradient>
<linearGradient id="paint2_linear_410_47" x1="38" y1="13" x2="38" y2="63" gradientUnits="userSpaceOnUse">
<stop stop-color="#F0CAB9"/>
<stop offset="1" stop-color="#E19F83"/>
</linearGradient>
<linearGradient id="paint3_linear_410_47" x1="38" y1="13" x2="38" y2="63" gradientUnits="userSpaceOnUse">
<stop stop-color="#F0CAB9"/>
<stop offset="1" stop-color="#E19F83"/>
</linearGradient>
</defs>
</svg>
