<svg width="31" height="31" viewBox="0 0 31 31" fill="none" xmlns="http://www.w3.org/2000/svg">
<circle cx="15.5" cy="15.5" r="15.5" fill="url(#paint0_linear_296_3)"/>
<g clip-path="url(#clip0_296_3)">
<path d="M15.5029 12.1309C13.6396 12.1309 12.1367 13.6338 12.1367 15.4971C12.1367 17.3604 13.6396 18.8633 15.5029 18.8633C17.3662 18.8633 18.8691 17.3604 18.8691 15.4971C18.8691 13.6338 17.3662 12.1309 15.5029 12.1309ZM15.5029 17.6855C14.2988 17.6855 13.3145 16.7041 13.3145 15.4971C13.3145 14.29 14.2959 13.3086 15.5029 13.3086C16.71 13.3086 17.6914 14.29 17.6914 15.4971C17.6914 16.7041 16.707 17.6855 15.5029 17.6855ZM19.792 11.9932C19.792 12.4297 19.4404 12.7783 19.0068 12.7783C18.5703 12.7783 18.2217 12.4268 18.2217 11.9932C18.2217 11.5596 18.5732 11.208 19.0068 11.208C19.4404 11.208 19.792 11.5596 19.792 11.9932ZM22.0215 12.79C21.9717 11.7383 21.7314 10.8066 20.9609 10.0391C20.1934 9.27148 19.2617 9.03125 18.21 8.97852C17.126 8.91699 13.877 8.91699 12.793 8.97852C11.7441 9.02832 10.8125 9.26855 10.042 10.0361C9.27148 10.8037 9.03418 11.7354 8.98145 12.7871C8.91992 13.8711 8.91992 17.1201 8.98145 18.2041C9.03125 19.2559 9.27148 20.1875 10.042 20.9551C10.8125 21.7227 11.7412 21.9629 12.793 22.0156C13.877 22.0771 17.126 22.0771 18.21 22.0156C19.2617 21.9658 20.1934 21.7256 20.9609 20.9551C21.7285 20.1875 21.9688 19.2559 22.0215 18.2041C22.083 17.1201 22.083 13.874 22.0215 12.79ZM20.6211 19.3672C20.3926 19.9414 19.9502 20.3838 19.373 20.6152C18.5088 20.958 16.458 20.8789 15.5029 20.8789C14.5479 20.8789 12.4941 20.9551 11.6328 20.6152C11.0586 20.3867 10.6162 19.9443 10.3848 19.3672C10.042 18.5029 10.1211 16.4521 10.1211 15.4971C10.1211 14.542 10.0449 12.4883 10.3848 11.627C10.6133 11.0527 11.0557 10.6104 11.6328 10.3789C12.4971 10.0361 14.5479 10.1152 15.5029 10.1152C16.458 10.1152 18.5117 10.0391 19.373 10.3789C19.9473 10.6074 20.3896 11.0498 20.6211 11.627C20.9639 12.4912 20.8848 14.542 20.8848 15.4971C20.8848 16.4521 20.9639 18.5059 20.6211 19.3672Z" fill="white"/>
</g>
<defs>
<linearGradient id="paint0_linear_296_3" x1="0" y1="0" x2="31" y2="31" gradientUnits="userSpaceOnUse">
<stop stop-color="#854AE4"/>
<stop offset="0.557292" stop-color="#F24271"/>
<stop offset="1" stop-color="#FFAE37"/>
</linearGradient>
<clipPath id="clip0_296_3">
<rect width="15" height="15" fill="white" transform="translate(8 8)"/>
</clipPath>
</defs>
</svg>
