<svg width="56" height="57" viewBox="0 0 56 57" fill="none" xmlns="http://www.w3.org/2000/svg">
<path d="M44.7226 5.86553H47.3152L2.91669 50.5087H0.324077L22.5233 28.1871L0 5.53967H40.5096L37.917 8.14657H5.5093L23.9817 26.7207L26.0882 24.6026L11.9908 10.4276H15.2316L27.7085 22.9733L44.7226 5.86553Z" fill="white"/>
<path d="M10.0464 50.8346H7.12968H6.80561L51.5282 5.86553H54.7689L32.4077 28.3501L55.093 51.1604H13.9353L16.2038 48.8794L16.5279 48.5535H48.9356L30.6252 30.1423L28.8428 31.9345L42.7781 45.9466H39.2556L27.0815 33.7055L10.0464 50.8346Z" fill="white"/>
<path d="M8.10191 56.3742L10.3705 54.0932H44.0744L46.3429 56.3742H8.10191Z" fill="white"/>
<path d="M10.6945 2.6069L8.10191 0H46.9911L44.3985 2.6069H10.6945Z" fill="white"/>
</svg>
