<svg width="115" height="116" viewBox="0 0 115 116" fill="none" xmlns="http://www.w3.org/2000/svg">
<rect width="114.067" height="116" rx="10" fill="#0E6365"/>
<path d="M80.5403 27.3795H84.0885L23.325 88.6203H19.7768L50.1585 57.9999L19.3333 26.9325H74.7744L71.2262 30.5086H26.8733L52.1544 55.9884L55.0374 53.0828L35.7438 33.6377H40.1791L57.255 50.8477L80.5403 27.3795Z" fill="white"/>
<path d="M33.0827 89.0674H29.0909H28.6474L89.8544 27.3795H94.2897L63.6862 58.2234L94.7333 89.5144H38.405L41.5097 86.3853L41.9533 85.9383H86.3062L61.2468 60.682L58.8074 63.1406L77.8791 82.3622H73.0582L56.3969 65.57L33.0827 89.0674Z" fill="white"/>
<path d="M30.4215 96.6666L33.5262 93.5375H79.6533L82.758 96.6666H30.4215Z" fill="white"/>
<path d="M33.9697 22.9094L30.4215 19.3333H83.645L80.0968 22.9094H33.9697Z" fill="white"/>
</svg>
