<svg width="117" height="116" viewBox="0 0 117 116" fill="none" xmlns="http://www.w3.org/2000/svg">
<rect width="117" height="116" rx="20" fill="#358D91"/>
<mask id="mask0_412_2" style="mask-type:alpha" maskUnits="userSpaceOnUse" x="0" y="0" width="117" height="116">
<rect width="117" height="116" rx="10" fill="#D9D9D9"/>
</mask>
<g mask="url(#mask0_412_2)">
<path d="M18.8021 -6.37248H19.9971L-0.468529 13.5664H-1.6636L8.56923 3.59696L-1.81299 -6.51802H16.8601L15.665 -5.35371H0.726547L9.24146 2.94203L10.2125 1.99603L3.71423 -4.33493H5.20808L10.9594 1.26833L18.8021 -6.37248Z" fill="black" fill-opacity="0.04"/>
<path d="M2.81793 13.7119H1.47347H1.32408L21.9391 -6.37248H23.433L13.1255 3.66973L23.5824 13.8575H4.61054L5.65623 12.8387L5.80562 12.6932H20.7441L12.3038 4.4702L11.4822 5.27066L17.9058 11.5289H16.282L10.6704 6.06163L2.81793 13.7119Z" fill="black" fill-opacity="0.04"/>
<path d="M1.92162 16.1861L2.96731 15.1673H18.5033L19.549 16.1861H1.92162Z" fill="black" fill-opacity="0.04"/>
<path d="M3.1167 -7.82787L1.92162 -8.99219H19.8478L18.6527 -7.82787H3.1167Z" fill="black" fill-opacity="0.04"/>
<path d="M15.1732 21.5035H16.3682L-4.09743 41.4424H-5.29251L4.94032 31.4729L-5.44189 21.358H13.2312L12.0361 22.5223H-2.90236L5.61255 30.818L6.58355 29.872L0.0853286 23.541H1.57917L7.33047 29.1443L15.1732 21.5035Z" fill="black" fill-opacity="0.04"/>
<path d="M-0.810978 41.5879H-2.15544H-2.30482L18.3102 21.5035H19.8041L9.49655 31.5457L19.9535 41.7335H0.981635L2.02733 40.7147L2.17671 40.5691H17.1152L8.67493 32.3462L7.85332 33.1466L14.2768 39.4048H12.6531L7.04145 33.9376L-0.810978 41.5879Z" fill="black" fill-opacity="0.04"/>
<path d="M-1.70728 44.0621L-0.661593 43.0433H14.8744L15.9201 44.0621H-1.70728Z" fill="black" fill-opacity="0.04"/>
<path d="M-0.512209 20.0481L-1.70728 18.8838H16.2188L15.0238 20.0481H-0.512209Z" fill="black" fill-opacity="0.04"/>
<path d="M15.1732 49.3796H16.3682L-4.09743 69.3185H-5.29251L4.94032 59.349L-5.44189 49.2341H13.2312L12.0361 50.3984H-2.90236L5.61255 58.6941L6.58355 57.7481L0.0853286 51.4171H1.57917L7.33047 57.0204L15.1732 49.3796Z" fill="black" fill-opacity="0.04"/>
<path d="M-0.810978 69.464H-2.15544H-2.30482L18.3102 49.3796H19.8041L9.49655 59.4218L19.9535 69.6096H0.981635L2.02733 68.5908L2.17671 68.4452H17.1152L8.67493 60.2223L7.85332 61.0227L14.2768 67.2809H12.6531L7.04145 61.8137L-0.810978 69.464Z" fill="black" fill-opacity="0.04"/>
<path d="M-1.70728 71.9382L-0.661593 70.9194H14.8744L15.9201 71.9382H-1.70728Z" fill="black" fill-opacity="0.04"/>
<path d="M-0.512209 47.9242L-1.70728 46.7599H16.2188L15.0238 47.9242H-0.512209Z" fill="black" fill-opacity="0.04"/>
<path d="M12.4525 78.1546H13.6475L-6.81814 98.0935H-8.01321L2.21962 88.1241L-8.1626 78.0091H10.5105L9.31538 79.1734H-5.62306L2.89185 87.4691L3.86285 86.5231L-2.63537 80.1922H-1.14153L4.60977 85.7954L12.4525 78.1546Z" fill="black" fill-opacity="0.04"/>
<path d="M-3.53168 98.239H-4.87614H-5.02553L15.5895 78.1546H17.0834L6.77584 88.1968L17.2328 98.3846H-1.73907L-0.693377 97.3658L-0.543993 97.2203H14.3944L5.95423 88.9973L5.13262 89.7978L11.5561 96.056H9.93241L4.32075 90.5887L-3.53168 98.239Z" fill="black" fill-opacity="0.04"/>
<path d="M-4.42799 100.713L-3.3823 99.6944H12.1537L13.1994 100.713H-4.42799Z" fill="black" fill-opacity="0.04"/>
<path d="M-3.23291 76.6992L-4.42799 75.5349H13.4981L12.3031 76.6992H-3.23291Z" fill="black" fill-opacity="0.04"/>
<path d="M12.4525 106.031H13.6475L-6.81814 125.97H-8.01321L2.21962 116L-8.1626 105.885H10.5105L9.31538 107.049H-5.62306L2.89185 115.345L3.86285 114.399L-2.63537 108.068H-1.14153L4.60977 113.672L12.4525 106.031Z" fill="black" fill-opacity="0.04"/>
<path d="M-3.53168 126.115H-4.87614H-5.02553L15.5895 106.031H17.0834L6.77584 116.073L17.2328 126.261H-1.73907L-0.693377 125.242L-0.543993 125.096H14.3944L5.95423 116.873L5.13262 117.674L11.5561 123.932H9.93241L4.32075 118.465L-3.53168 126.115Z" fill="black" fill-opacity="0.04"/>
<path d="M-4.42799 128.589L-3.3823 127.571H12.1537L13.1994 128.589H-4.42799Z" fill="black" fill-opacity="0.04"/>
<path d="M-3.23291 104.575L-4.42799 103.411H13.4981L12.3031 104.575H-3.23291Z" fill="black" fill-opacity="0.04"/>
<path d="M123.103 -8.17106H124.298L103.833 11.7678H102.638L112.87 1.79838L102.488 -8.3166H121.161L119.966 -7.15229H105.028L113.543 1.14345L114.514 0.197445L108.016 -6.13351H109.509L115.261 -0.530252L123.103 -8.17106Z" fill="black" fill-opacity="0.04"/>
<path d="M107.119 11.9134H105.775H105.625L126.24 -8.17106H127.734L117.427 1.87115L127.884 12.0589H108.912L109.958 11.0401L110.107 10.8946H125.045L116.605 2.67161L115.783 3.47208L122.207 9.73027H120.583L114.972 4.26305L107.119 11.9134Z" fill="black" fill-opacity="0.04"/>
<path d="M106.223 14.3875L107.269 13.3687H122.805L123.85 14.3875H106.223Z" fill="black" fill-opacity="0.04"/>
<path d="M107.418 -9.62646L106.223 -10.7908H124.149L122.954 -9.62646H107.418Z" fill="black" fill-opacity="0.04"/>
<path d="M119.476 19.7049H120.671L100.205 39.6438H99.0102L109.243 29.6744L98.8608 19.5594H117.534L116.339 20.7237H101.4L109.915 29.0194L110.886 28.0734L104.388 21.7425H105.882L111.633 27.3457L119.476 19.7049Z" fill="black" fill-opacity="0.04"/>
<path d="M103.492 39.7893H102.147H101.998L122.613 19.7049H124.107L113.799 29.7471L124.256 39.9349H105.284L106.33 38.9161L106.479 38.7706H121.418L112.978 30.5476L112.156 31.3481L118.58 37.6062H116.956L111.344 32.139L103.492 39.7893Z" fill="black" fill-opacity="0.04"/>
<path d="M102.595 42.2635L103.641 41.2447H119.177L120.223 42.2635H102.595Z" fill="black" fill-opacity="0.04"/>
<path d="M103.791 18.2495L102.595 17.0852H120.522L119.327 18.2495H103.791Z" fill="black" fill-opacity="0.04"/>
<path d="M119.476 47.5808H120.671L100.205 67.5196H99.0102L109.243 57.5502L98.8608 47.4352H117.534L116.339 48.5995H101.4L109.915 56.8953L110.886 55.9493L104.388 49.6183H105.882L111.633 55.2216L119.476 47.5808Z" fill="black" fill-opacity="0.04"/>
<path d="M103.492 67.6652H102.147H101.998L122.613 47.5808H124.107L113.799 57.623L124.256 67.8107H105.284L106.33 66.792L106.479 66.6464H121.418L112.978 58.4234L112.156 59.2239L118.58 65.4821H116.956L111.344 60.0149L103.492 67.6652Z" fill="black" fill-opacity="0.04"/>
<path d="M102.595 70.1394L103.641 69.1206H119.177L120.223 70.1394H102.595Z" fill="black" fill-opacity="0.04"/>
<path d="M103.791 46.1254L102.595 44.9611H120.522L119.327 46.1254H103.791Z" fill="black" fill-opacity="0.04"/>
<path d="M116.755 76.3562H117.95L97.4841 96.295H96.289L106.522 86.3256L96.1396 76.2106H114.813L113.618 77.3749H98.6792L107.194 85.6707L108.165 84.7247L101.667 78.3937H103.161L108.912 83.997L116.755 76.3562Z" fill="black" fill-opacity="0.04"/>
<path d="M100.771 96.4406H99.4261H99.2767L119.892 76.3562H121.386L111.078 86.3984L121.535 96.5861H102.563L103.609 95.5673L103.758 95.4218H118.697L110.256 87.1988L109.435 87.9993L115.858 94.2575H114.235L108.623 88.7903L100.771 96.4406Z" fill="black" fill-opacity="0.04"/>
<path d="M99.8743 98.9147L100.92 97.896H116.456L117.502 98.9147H99.8743Z" fill="black" fill-opacity="0.04"/>
<path d="M101.069 74.9008L99.8743 73.7365H117.8L116.605 74.9008H101.069Z" fill="black" fill-opacity="0.04"/>
<path d="M116.755 104.232H117.95L97.4841 124.171H96.289L106.522 114.201L96.1396 104.086H114.813L113.618 105.251H98.6792L107.194 113.547L108.165 112.601L101.667 106.27H103.161L108.912 111.873L116.755 104.232Z" fill="black" fill-opacity="0.04"/>
<path d="M100.771 124.316H99.4261H99.2767L119.892 104.232H121.386L111.078 114.274L121.535 124.462H102.563L103.609 123.443L103.758 123.298H118.697L110.256 115.075L109.435 115.875L115.858 122.133H114.235L108.623 116.666L100.771 124.316Z" fill="black" fill-opacity="0.04"/>
<path d="M99.8743 126.791L100.92 125.772H116.456L117.502 126.791H99.8743Z" fill="black" fill-opacity="0.04"/>
<path d="M101.069 102.777L99.8743 101.612H117.8L116.605 102.777H101.069Z" fill="black" fill-opacity="0.04"/>
<path d="M39.6619 5.31746H40.857L20.3913 25.2563H19.1963L29.4291 15.2869L19.0469 5.17192H37.7199L36.5249 6.33624H21.5864L30.1013 14.632L31.0723 13.686L24.5741 7.35501H26.0679L31.8192 12.9583L39.6619 5.31746Z" fill="black" fill-opacity="0.04"/>
<path d="M23.6778 25.4019H22.3333H22.1839L42.799 5.31746H44.2928L33.9853 15.3597L44.4422 25.5474H25.4704L26.5161 24.5286L26.6655 24.3831H41.6039L33.1637 16.1601L32.3421 16.9606L38.7656 23.2188H37.1419L31.5302 17.7516L23.6778 25.4019Z" fill="black" fill-opacity="0.04"/>
<path d="M22.7815 27.876L23.8272 26.8573H39.3632L40.4088 27.876H22.7815Z" fill="black" fill-opacity="0.04"/>
<path d="M23.9766 3.86207L22.7815 2.69775H40.7076L39.5125 3.86207H23.9766Z" fill="black" fill-opacity="0.04"/>
<path d="M39.6619 33.1933H40.857L20.3913 53.1322H19.1963L29.4291 43.1628L19.0469 33.0478H37.7199L36.5249 34.2121H21.5864L30.1013 42.5078L31.0723 41.5618L24.5741 35.2309H26.0679L31.8192 40.8341L39.6619 33.1933Z" fill="black" fill-opacity="0.04"/>
<path d="M23.6778 53.2777H22.3333H22.1839L42.799 33.1933H44.2928L33.9853 43.2355L44.4422 53.4233H25.4704L26.5161 52.4045L26.6655 52.259H41.6039L33.1637 44.036L32.3421 44.8365L38.7656 51.0946H37.1419L31.5302 45.6274L23.6778 53.2777Z" fill="black" fill-opacity="0.04"/>
<path d="M22.7815 55.7519L23.8272 54.7331H39.3632L40.4088 55.7519H22.7815Z" fill="black" fill-opacity="0.04"/>
<path d="M23.9766 31.7379L22.7815 30.5736H40.7076L39.5125 31.7379H23.9766Z" fill="black" fill-opacity="0.04"/>
<path d="M36.9412 61.9685H38.1363L17.6706 81.9073H16.4756L26.7084 71.9379L16.3262 61.8229H34.9992L33.8041 62.9872H18.8657L27.3806 71.283L28.3516 70.337L21.8534 64.006H23.3472L29.0985 69.6093L36.9412 61.9685Z" fill="black" fill-opacity="0.04"/>
<path d="M20.9571 82.0529H19.6126H19.4632L40.0783 61.9685H41.5721L31.2646 72.0107L41.7215 82.1984H22.7497L23.7954 81.1796L23.9448 81.0341H38.8832L30.443 72.8111L29.6214 73.6116L36.0449 79.8698H34.4212L28.8095 74.4026L20.9571 82.0529Z" fill="black" fill-opacity="0.04"/>
<path d="M20.0608 84.5271L21.1065 83.5083H36.6425L37.6881 84.5271H20.0608Z" fill="black" fill-opacity="0.04"/>
<path d="M21.2559 60.5131L20.0608 59.3488H37.9869L36.7918 60.5131H21.2559Z" fill="black" fill-opacity="0.04"/>
<path d="M36.9412 89.8446H38.1363L17.6706 109.783H16.4756L26.7084 99.814L16.3262 89.699H34.9992L33.8041 90.8633H18.8657L27.3806 99.1591L28.3516 98.2131L21.8534 91.8821H23.3472L29.0985 97.4854L36.9412 89.8446Z" fill="black" fill-opacity="0.04"/>
<path d="M20.9571 109.929H19.6126H19.4632L40.0783 89.8446H41.5721L31.2646 99.8868L41.7215 110.075H22.7497L23.7954 109.056L23.9448 108.91H38.8832L30.443 100.687L29.6214 101.488L36.0449 107.746H34.4212L28.8095 102.279L20.9571 109.929Z" fill="black" fill-opacity="0.04"/>
<path d="M20.0608 112.403L21.1065 111.384H36.6425L37.6881 112.403H20.0608Z" fill="black" fill-opacity="0.04"/>
<path d="M21.2559 88.3892L20.0608 87.2249H37.9869L36.7918 88.3892H21.2559Z" fill="black" fill-opacity="0.04"/>
<path d="M98.615 7.1158H99.8101L79.3445 27.0547H78.1494L88.3822 17.0852L78 6.97026H96.6731L95.478 8.13458H80.5395L89.0544 16.4303L90.0254 15.4843L83.5272 9.15335H85.0211L90.7724 14.7566L98.615 7.1158Z" fill="black" fill-opacity="0.04"/>
<path d="M82.6309 27.2002H81.2865H81.1371L101.752 7.1158H103.246L92.9384 17.158L103.395 27.3458H84.4235L85.4692 26.327L85.6186 26.1814H100.557L92.1168 17.9585L91.2952 18.7589L97.7187 25.0171H96.095L90.4833 19.5499L82.6309 27.2002Z" fill="black" fill-opacity="0.04"/>
<path d="M81.7346 29.6744L82.7803 28.6556H98.3163L99.362 29.6744H81.7346Z" fill="black" fill-opacity="0.04"/>
<path d="M82.9297 5.66041L81.7346 4.49609H99.6607L98.4657 5.66041H82.9297Z" fill="black" fill-opacity="0.04"/>
<path d="M98.615 34.9919H99.8101L79.3445 54.9308H78.1494L88.3822 44.9613L78 34.8464H96.6731L95.478 36.0107H80.5395L89.0544 44.3064L90.0254 43.3604L83.5272 37.0294H85.0211L90.7724 42.6327L98.615 34.9919Z" fill="black" fill-opacity="0.04"/>
<path d="M82.6309 55.0763H81.2865H81.1371L101.752 34.9919H103.246L92.9384 45.0341L103.395 55.2219H84.4235L85.4692 54.2031L85.6186 54.0575H100.557L92.1168 45.8346L91.2952 46.635L97.7187 52.8932H96.095L90.4833 47.426L82.6309 55.0763Z" fill="black" fill-opacity="0.04"/>
<path d="M81.7346 57.5505L82.7803 56.5317H98.3163L99.362 57.5505H81.7346Z" fill="black" fill-opacity="0.04"/>
<path d="M82.9297 33.5365L81.7346 32.3722H99.6607L98.4657 33.5365H82.9297Z" fill="black" fill-opacity="0.04"/>
<path d="M93.2767 63.294H94.4717L74.0061 83.2329H72.811L83.0438 73.2635L72.6616 63.1485H91.3347L90.1396 64.3128H75.2012L83.7161 72.6085L84.6871 71.6625L78.1888 65.3316H79.6827L85.434 70.9348L93.2767 63.294Z" fill="black" fill-opacity="0.04"/>
<path d="M77.2925 83.3784H75.9481H75.7987L96.4137 63.294H97.9076L87.6001 73.3362L98.057 83.524H79.0852L80.1308 82.5052L80.2802 82.3597H95.2187L86.7784 74.1367L85.9568 74.9372L92.3804 81.1954H90.7566L85.145 75.7281L77.2925 83.3784Z" fill="black" fill-opacity="0.04"/>
<path d="M76.3962 85.8526L77.4419 84.8338H92.9779L94.0236 85.8526H76.3962Z" fill="black" fill-opacity="0.04"/>
<path d="M77.5913 61.8386L76.3962 60.6743H94.3224L93.1273 61.8386H77.5913Z" fill="black" fill-opacity="0.04"/>
<path d="M95.8939 91.643H97.0889L76.6233 111.582H75.4282L85.661 101.612L75.2788 91.4975H93.9519L92.7568 92.6618H77.8183L86.3333 100.958L87.3043 100.012L80.806 93.6806H82.2999L88.0512 99.2838L95.8939 91.643Z" fill="black" fill-opacity="0.04"/>
<path d="M79.9097 111.727H78.5653H78.4159L99.0309 91.643H100.525L90.2172 101.685L100.674 111.873H81.7023L82.748 110.854L82.8974 110.709H97.8359L89.3956 102.486L88.574 103.286L94.9976 109.544H93.3738L87.7622 104.077L79.9097 111.727Z" fill="black" fill-opacity="0.04"/>
<path d="M79.0134 114.202L80.0591 113.183H95.5951L96.6408 114.202H79.0134Z" fill="black" fill-opacity="0.04"/>
<path d="M80.2085 90.1876L79.0134 89.0233H96.9395L95.7445 90.1876H80.2085Z" fill="black" fill-opacity="0.04"/>
<path d="M62.3362 -11.768H63.5313L43.0657 8.17089H41.8706L52.1034 -1.79855L41.7212 -11.9135H60.3942L59.1992 -10.7492H44.2607L52.7756 -2.45347L53.7466 -3.39948L47.2484 -9.73044H48.7423L54.4936 -4.12718L62.3362 -11.768Z" fill="black" fill-opacity="0.04"/>
<path d="M46.3521 8.31643H45.0076H44.8583L65.4733 -11.768H66.9672L56.6596 -1.72578L67.1165 8.46197H48.1447L49.1904 7.4432L49.3398 7.29766H64.2782L55.838 -0.925312L55.0164 -0.124846L61.4399 6.13334H59.8162L54.2045 0.666125L46.3521 8.31643Z" fill="black" fill-opacity="0.04"/>
<path d="M45.4558 10.7906L46.5015 9.77183H62.0375L63.0832 10.7906H45.4558Z" fill="black" fill-opacity="0.04"/>
<path d="M46.6509 -13.2234L45.4558 -14.3877H63.3819L62.1869 -13.2234H46.6509Z" fill="black" fill-opacity="0.04"/>
<path d="M58.7083 16.108H59.9034L39.4377 36.0469H38.2426L48.4755 26.0774L38.0933 15.9624H56.7663L55.5712 17.1268H40.6328L49.1477 25.4225L50.1187 24.4765L43.6205 18.1455H45.1143L50.8656 23.7488L58.7083 16.108Z" fill="black" fill-opacity="0.04"/>
<path d="M42.7242 36.1924H41.3797H41.2303L61.8454 16.108H63.3392L53.0317 26.1502L63.4886 36.3379H44.5168L45.5625 35.3192L45.7119 35.1736H60.6503L52.2101 26.9507L51.3885 27.7511L57.812 34.0093H56.1883L50.5766 28.5421L42.7242 36.1924Z" fill="black" fill-opacity="0.04"/>
<path d="M41.8279 38.6666L42.8736 37.6478H58.4095L59.4552 38.6666H41.8279Z" fill="black" fill-opacity="0.04"/>
<path d="M43.0229 14.6526L41.8279 13.4883H59.754L58.5589 14.6526H43.0229Z" fill="black" fill-opacity="0.04"/>
<path d="M58.7083 43.9841H59.9034L39.4377 63.923H38.2426L48.4755 53.9535L38.0933 43.8385H56.7663L55.5712 45.0029H40.6328L49.1477 53.2986L50.1187 52.3526L43.6205 46.0216H45.1143L50.8656 51.6249L58.7083 43.9841Z" fill="black" fill-opacity="0.04"/>
<path d="M42.7242 64.0685H41.3797H41.2303L61.8454 43.9841H63.3392L53.0317 54.0263L63.4886 64.214H44.5168L45.5625 63.1953L45.7119 63.0497H60.6503L52.2101 54.8268L51.3885 55.6272L57.812 61.8854H56.1883L50.5766 56.4182L42.7242 64.0685Z" fill="black" fill-opacity="0.04"/>
<path d="M41.8279 66.5427L42.8736 65.5239H58.4095L59.4552 66.5427H41.8279Z" fill="black" fill-opacity="0.04"/>
<path d="M43.0229 42.5287L41.8279 41.3644H59.754L58.5589 42.5287H43.0229Z" fill="black" fill-opacity="0.04"/>
<path d="M55.9871 72.7592H57.1822L36.7165 92.6981H35.5215L45.7543 82.7287L35.3721 72.6137H54.0451L52.85 73.778H37.9116L46.4265 82.0737L47.3975 81.1277L40.8993 74.7968H42.3931L48.1444 80.4L55.9871 72.7592Z" fill="black" fill-opacity="0.04"/>
<path d="M40.003 92.8437H38.6585H38.5091L59.1242 72.7592H60.618L50.3105 82.8014L60.7674 92.9892H41.7956L42.8413 91.9704L42.9907 91.8249H57.9291L49.4889 83.6019L48.6673 84.4024L55.0908 90.6606H53.4671L47.8554 85.1933L40.003 92.8437Z" fill="black" fill-opacity="0.04"/>
<path d="M39.1067 95.3178L40.1524 94.299H55.6884L56.734 95.3178H39.1067Z" fill="black" fill-opacity="0.04"/>
<path d="M40.3018 71.3038L39.1067 70.1395H57.0328L55.8377 71.3038H40.3018Z" fill="black" fill-opacity="0.04"/>
<path d="M55.9871 100.635H57.1822L36.7165 120.574H35.5215L45.7543 110.605L35.3721 100.49H54.0451L52.85 101.654H37.9116L46.4265 109.95L47.3975 109.004L40.8993 102.673H42.3931L48.1444 108.276L55.9871 100.635Z" fill="black" fill-opacity="0.04"/>
<path d="M40.003 120.72H38.6585H38.5091L59.1242 100.635H60.618L50.3105 110.677L60.7674 120.865H41.7956L42.8413 119.846L42.9907 119.701H57.9291L49.4889 111.478L48.6673 112.278L55.0908 118.537H53.4671L47.8554 113.069L40.003 120.72Z" fill="black" fill-opacity="0.04"/>
<path d="M39.1067 123.194L40.1524 122.175H55.6884L56.734 123.194H39.1067Z" fill="black" fill-opacity="0.04"/>
<path d="M40.3018 99.1798L39.1067 98.0155H57.0328L55.8377 99.1798H40.3018Z" fill="black" fill-opacity="0.04"/>
<path d="M78.6619 -2.77568H79.857L59.3913 17.1632H58.1963L68.4291 7.19376L58.0469 -2.92122H76.7199L75.5249 -1.7569H60.5864L69.1013 6.53884L70.0723 5.59283L63.5741 -0.738129H65.0679L70.8192 4.86513L78.6619 -2.77568Z" fill="black" fill-opacity="0.04"/>
<path d="M62.6778 17.3087H61.3333H61.1839L81.799 -2.77568H83.2928L72.9853 7.26653L83.4422 17.4543H64.4704L65.5161 16.4355L65.6655 16.29H80.6039L72.1637 8.067L71.3421 8.86746L77.7656 15.1257H76.1419L70.5302 9.65843L62.6778 17.3087Z" fill="black" fill-opacity="0.04"/>
<path d="M61.7815 19.7829L62.8272 18.7641H78.3632L79.4088 19.7829H61.7815Z" fill="black" fill-opacity="0.04"/>
<path d="M62.9766 -4.23107L61.7815 -5.39539H79.7076L78.5125 -4.23107H62.9766Z" fill="black" fill-opacity="0.04"/>
<path d="M77.7547 25.1003H78.9498L58.4841 45.0392H57.289L67.5219 35.0697L57.1396 24.9548H75.8127L74.6176 26.1191H59.6792L68.1941 34.4148L69.1651 33.4688L62.6669 27.1378H64.1607L69.912 32.7411L77.7547 25.1003Z" fill="black" fill-opacity="0.04"/>
<path d="M61.7706 45.1847H60.4261H60.2767L80.8918 25.1003H82.3856L72.0781 35.1425L82.535 45.3303H63.5632L64.6089 44.3115L64.7583 44.1659H79.6967L71.2565 35.943L70.4349 36.7434L76.8584 43.0016H75.2347L69.623 37.5344L61.7706 45.1847Z" fill="black" fill-opacity="0.04"/>
<path d="M60.8743 47.6589L61.9199 46.6401H77.4559L78.5016 47.6589H60.8743Z" fill="black" fill-opacity="0.04"/>
<path d="M62.0693 23.6449L60.8743 22.4806H78.8004L77.6053 23.6449H62.0693Z" fill="black" fill-opacity="0.04"/>
<path d="M75.9407 53.8753H77.1358L56.6701 73.8142H55.4751L65.7079 63.8448L55.3257 53.7298H73.9987L72.8037 54.8941H57.8652L66.3801 63.1898L67.3511 62.2438L60.8529 55.9129H62.3468L68.0981 61.5161L75.9407 53.8753Z" fill="black" fill-opacity="0.04"/>
<path d="M59.9566 73.9597H58.6121H58.4628L79.0778 53.8753H80.5716L70.2641 63.9175L80.721 74.1053H61.7492L62.7949 73.0865L62.9443 72.941H77.8827L69.4425 64.718L68.6209 65.5185L75.0444 71.7767H73.4207L67.809 66.3094L59.9566 73.9597Z" fill="black" fill-opacity="0.04"/>
<path d="M59.0603 76.4339L60.106 75.4151H75.642L76.6877 76.4339H59.0603Z" fill="black" fill-opacity="0.04"/>
<path d="M60.2554 52.4199L59.0603 51.2556H76.9864L75.7913 52.4199H60.2554Z" fill="black" fill-opacity="0.04"/>
<path d="M77.7547 81.7514H78.9498L58.4841 101.69H57.289L67.5219 91.7209L57.1396 81.6059H75.8127L74.6176 82.7702H59.6792L68.1941 91.0659L69.1651 90.1199L62.6669 83.789H64.1607L69.912 89.3922L77.7547 81.7514Z" fill="black" fill-opacity="0.04"/>
<path d="M61.7706 101.836H60.4261H60.2767L80.8918 81.7514H82.3856L72.0781 91.7936L82.535 101.981H63.5632L64.6089 100.963L64.7583 100.817H79.6967L71.2565 92.5941L70.4349 93.3946L76.8584 99.6528H75.2347L69.623 94.1855L61.7706 101.836Z" fill="black" fill-opacity="0.04"/>
<path d="M60.8743 104.31L61.9199 103.291H77.4559L78.5016 104.31H60.8743Z" fill="black" fill-opacity="0.04"/>
<path d="M62.0693 80.296L60.8743 79.1317H78.8004L77.6053 80.296H62.0693Z" fill="black" fill-opacity="0.04"/>
<path d="M72.3128 109.627H73.5079L53.0422 129.566H51.8471L62.08 119.597L51.6978 109.482H70.3708L69.1757 110.646H54.2373L62.7522 118.942L63.7232 117.996L57.225 111.665H58.7188L64.4701 117.268L72.3128 109.627Z" fill="black" fill-opacity="0.04"/>
<path d="M56.3287 129.712H54.9842H54.8348L75.4499 109.627H76.9437L66.6362 119.67L77.0931 129.857H58.1213L59.167 128.839L59.3164 128.693H74.2548L65.8146 120.47L64.993 121.271L71.4165 127.529H69.7928L64.1811 122.062L56.3287 129.712Z" fill="black" fill-opacity="0.04"/>
<path d="M55.4324 132.186L56.4781 131.167H72.014L73.0597 132.186H55.4324Z" fill="black" fill-opacity="0.04"/>
<path d="M56.6274 108.172L55.4324 107.008H73.3585L72.1634 108.172H56.6274Z" fill="black" fill-opacity="0.04"/>
</g>
<path d="M82.4977 27.7825H86.12L24.0883 88.2176H20.466L51.4818 58.0001L20.0132 27.3414H76.6115L72.9892 30.8705H27.7106L53.5194 56.015L56.4625 53.1476L36.7663 33.9584H41.2941L58.7264 50.9419L82.4977 27.7825Z" fill="url(#paint0_linear_412_2)"/>
<path d="M34.0496 88.6587H29.9745H29.5217L92.0062 27.7825H96.5341L65.2918 58.2206L96.9869 89.0998H39.483L42.6525 86.0119L43.1053 85.5708H88.3839L62.8015 60.6468L60.3112 63.0731L79.781 82.0417H74.8594L57.8504 65.4705L34.0496 88.6587Z" fill="url(#paint1_linear_412_2)"/>
<path d="M31.3328 96.158L34.5023 93.07H81.5921L84.7616 96.158H31.3328Z" fill="url(#paint2_linear_412_2)"/>
<path d="M34.9551 23.3712L31.3328 19.8422H85.6672L82.0449 23.3712H34.9551Z" fill="url(#paint3_linear_412_2)"/>
<defs>
<linearGradient id="paint0_linear_412_2" x1="58.5" y1="19.8422" x2="58.5" y2="96.158" gradientUnits="userSpaceOnUse">
<stop stop-color="#F0CAB9"/>
<stop offset="1" stop-color="#E19F83"/>
</linearGradient>
<linearGradient id="paint1_linear_412_2" x1="58.5" y1="19.8422" x2="58.5" y2="96.158" gradientUnits="userSpaceOnUse">
<stop stop-color="#F0CAB9"/>
<stop offset="1" stop-color="#E19F83"/>
</linearGradient>
<linearGradient id="paint2_linear_412_2" x1="58.5" y1="19.8422" x2="58.5" y2="96.158" gradientUnits="userSpaceOnUse">
<stop stop-color="#F0CAB9"/>
<stop offset="1" stop-color="#E19F83"/>
</linearGradient>
<linearGradient id="paint3_linear_412_2" x1="58.5" y1="19.8422" x2="58.5" y2="96.158" gradientUnits="userSpaceOnUse">
<stop stop-color="#F0CAB9"/>
<stop offset="1" stop-color="#E19F83"/>
</linearGradient>
</defs>
</svg>
