<svg width="31" height="31" viewBox="0 0 31 31" fill="none" xmlns="http://www.w3.org/2000/svg">
<circle cx="15.5" cy="15.5" r="15.5" fill="#19D816"/>
<path d="M19.664 16.5885C19.4635 16.487 18.487 16.0105 18.3045 15.9425C18.122 15.8775 17.9895 15.8435 17.8565 16.044C17.7265 16.2395 17.3435 16.687 17.2265 16.8175C17.1095 16.948 16.9945 16.958 16.797 16.8695C16.5965 16.768 15.956 16.5595 15.1955 15.8775C14.6015 15.349 14.206 14.698 14.0885 14.4975C13.9715 14.2995 14.0755 14.1875 14.1745 14.0885C14.2655 13.9975 14.375 13.8595 14.4765 13.7395C14.573 13.6195 14.604 13.539 14.6745 13.409C14.7395 13.2685 14.706 13.159 14.6565 13.06C14.607 12.961 14.2085 11.9795 14.042 11.5885C13.883 11.2005 13.7165 11.25 13.594 11.25C13.4795 11.2395 13.3465 11.2395 13.214 11.2395C13.0815 11.2395 12.865 11.289 12.6825 11.479C12.5 11.6795 11.9845 12.1585 11.9845 13.1275C11.9845 14.099 12.698 15.039 12.797 15.1795C12.8985 15.3095 14.2005 17.3095 16.198 18.169C16.6745 18.3695 17.0445 18.4895 17.3335 18.5885C17.81 18.7395 18.245 18.7185 18.5885 18.669C18.9685 18.6065 19.7655 18.187 19.9325 17.7185C20.102 17.247 20.102 16.8565 20.0525 16.768C20.003 16.677 19.873 16.6275 19.6725 16.539L19.664 16.5885ZM16.0415 21.5H16.031C14.8485 21.5 13.6795 21.1795 12.6585 20.5805L12.419 20.4375L9.919 21.0885L10.591 18.656L10.4295 18.406C9.7705 17.3565 9.419 16.1455 9.419 14.901C9.419 11.271 12.3905 8.31 16.0465 8.31C17.8175 8.31 19.479 9 20.729 10.25C21.979 11.4895 22.669 13.151 22.669 14.9115C22.664 18.539 19.695 21.5 16.044 21.5H16.0415ZM21.6795 9.2995C20.1585 7.8305 18.1585 7 16.031 7C11.643 7 8.07 10.5575 8.0675 14.9295C8.0675 16.3255 8.432 17.6875 9.13 18.893L8 23L12.224 21.8985C13.388 22.526 14.698 22.862 16.0315 22.8645H16.034C20.4245 22.8645 23.9975 19.307 24 14.932C24 12.815 23.1745 10.8225 21.6695 9.325L21.6795 9.2995Z" fill="white"/>
</svg>
